<svg width="830" height="608" viewBox="0 0 830 608" fill="none" xmlns="http://www.w3.org/2000/svg">
<path d="M9.375 316V170.545H72.1591C82.9545 170.545 92.4006 172.676 100.497 176.938C108.594 181.199 114.891 187.188 119.389 194.906C123.887 202.624 126.136 211.644 126.136 221.966C126.136 232.383 123.816 241.402 119.176 249.026C114.583 256.649 108.12 262.52 99.7869 266.639C91.5009 270.759 81.8182 272.818 70.7386 272.818H33.2386V242.136H62.7841C67.4242 242.136 71.3778 241.331 74.6449 239.722C77.9593 238.064 80.4924 235.721 82.2443 232.69C84.0436 229.66 84.9432 226.085 84.9432 221.966C84.9432 217.799 84.0436 214.248 82.2443 211.312C80.4924 208.33 77.9593 206.057 74.6449 204.494C71.3778 202.884 67.4242 202.08 62.7841 202.08H48.8636V316H9.375ZM140.625 316V170.545H203.409C214.205 170.545 223.651 172.51 231.747 176.44C239.844 180.37 246.141 186.028 250.639 193.415C255.137 200.801 257.386 209.655 257.386 219.977C257.386 230.394 255.066 239.177 250.426 246.327C245.833 253.476 239.37 258.874 231.037 262.52C222.751 266.166 213.068 267.989 201.989 267.989H164.489V237.307H194.034C198.674 237.307 202.628 236.739 205.895 235.602C209.209 234.419 211.742 232.548 213.494 229.991C215.294 227.435 216.193 224.097 216.193 219.977C216.193 215.811 215.294 212.425 213.494 209.821C211.742 207.17 209.209 205.228 205.895 203.997C202.628 202.719 198.674 202.08 194.034 202.08H180.114V316H140.625ZM225.852 249.239L262.216 316H219.318L183.807 249.239H225.852ZM415.128 243.273C415.128 259.466 411.979 273.126 405.682 284.253C399.384 295.332 390.885 303.737 380.185 309.466C369.484 315.148 357.552 317.989 344.389 317.989C331.132 317.989 319.152 315.124 308.452 309.395C297.798 303.618 289.323 295.19 283.026 284.111C276.776 272.984 273.651 259.371 273.651 243.273C273.651 227.08 276.776 213.443 283.026 202.364C289.323 191.237 297.798 182.832 308.452 177.151C319.152 171.421 331.132 168.557 344.389 168.557C357.552 168.557 369.484 171.421 380.185 177.151C390.885 182.832 399.384 191.237 405.682 202.364C411.979 213.443 415.128 227.08 415.128 243.273ZM374.503 243.273C374.503 234.561 373.343 227.222 371.023 221.256C368.75 215.242 365.365 210.697 360.866 207.619C356.416 204.494 350.923 202.932 344.389 202.932C337.855 202.932 332.339 204.494 327.841 207.619C323.39 210.697 320.005 215.242 317.685 221.256C315.412 227.222 314.276 234.561 314.276 243.273C314.276 251.985 315.412 259.348 317.685 265.361C320.005 271.327 323.39 275.872 327.841 278.997C332.339 282.075 337.855 283.614 344.389 283.614C350.923 283.614 356.416 282.075 360.866 278.997C365.365 275.872 368.75 271.327 371.023 265.361C373.343 259.348 374.503 251.985 374.503 243.273ZM422.585 202.364V170.545H549.006V202.364H505.256V316H466.335V202.364H422.585ZM619.833 316H563.867V170.545H619.265C634.227 170.545 647.153 173.457 658.043 179.281C668.981 185.058 677.409 193.391 683.327 204.281C689.293 215.124 692.276 228.121 692.276 243.273C692.276 258.424 689.317 271.445 683.398 282.335C677.48 293.178 669.099 301.511 658.256 307.335C647.414 313.112 634.606 316 619.833 316ZM603.356 282.477H618.413C625.61 282.477 631.741 281.317 636.808 278.997C641.921 276.677 645.804 272.676 648.455 266.994C651.154 261.312 652.504 253.405 652.504 243.273C652.504 233.14 651.13 225.233 648.384 219.551C645.685 213.869 641.708 209.868 636.452 207.548C631.244 205.228 624.852 204.068 617.276 204.068H603.356V282.477ZM710.547 316V170.545H815.376V202.364H750.036V227.364H809.979V259.182H750.036V284.182H815.092V316H710.547Z" fill="white"/>
<path d="M135.902 415V381H146.502C149.768 381 152.252 381.867 153.952 383.6C155.685 385.3 156.552 387.583 156.552 390.45V393.1C156.552 395.967 155.685 398.267 153.952 400C152.252 401.733 149.768 402.6 146.502 402.6H140.252V415H135.902ZM146.502 385.1H140.252V398.55H146.502C148.302 398.55 149.668 398.067 150.602 397.1C151.568 396.133 152.052 394.8 152.052 393.1V390.45C152.052 388.783 151.568 387.483 150.602 386.55C149.668 385.583 148.302 385.1 146.502 385.1ZM175.589 393.85C174.089 393.85 172.623 394.117 171.189 394.65C169.789 395.183 168.289 396.2 166.689 397.7V415H162.589V390.25H166.489V394.25C168.189 392.583 169.739 391.417 171.139 390.75C172.573 390.083 174.056 389.75 175.589 389.75V393.85ZM200.549 401.1V404.1C200.549 407.633 199.632 410.417 197.799 412.45C195.999 414.483 193.415 415.5 190.049 415.5C186.715 415.5 184.132 414.483 182.299 412.45C180.465 410.417 179.549 407.633 179.549 404.1V401.1C179.549 397.633 180.449 394.883 182.249 392.85C184.082 390.783 186.682 389.75 190.049 389.75C193.415 389.75 195.999 390.783 197.799 392.85C199.632 394.883 200.549 397.633 200.549 401.1ZM196.299 401.1C196.299 398.733 195.765 396.883 194.699 395.55C193.632 394.183 192.082 393.5 190.049 393.5C188.049 393.5 186.499 394.183 185.399 395.55C184.332 396.883 183.799 398.733 183.799 401.1V404.1C183.799 406.567 184.332 408.467 185.399 409.8C186.499 411.133 188.049 411.8 190.049 411.8C192.082 411.8 193.632 411.133 194.699 409.8C195.765 408.467 196.299 406.567 196.299 404.1V401.1ZM215.961 417.5C214.895 420.5 213.578 422.683 212.011 424.05C210.478 425.45 208.328 426.15 205.561 426.15V422.1C206.695 422.067 207.661 421.917 208.461 421.65C209.295 421.383 210.028 420.833 210.661 420C211.328 419.2 211.961 418 212.561 416.4L213.061 415.15L204.161 390.25H208.361L212.511 402.3L215.061 410L217.511 402.3L221.561 390.25H225.611L215.961 417.5ZM248.557 413.55C247.057 414.283 245.557 414.783 244.057 415.05C242.557 415.35 241.174 415.5 239.907 415.5C236.34 415.5 233.674 414.483 231.907 412.45C230.174 410.417 229.307 407.633 229.307 404.1V401.1C229.307 397.667 230.174 394.917 231.907 392.85C233.674 390.783 236.157 389.75 239.357 389.75C241.057 389.75 242.607 390.1 244.007 390.8C245.44 391.467 246.574 392.5 247.407 393.9C248.274 395.267 248.707 397.033 248.707 399.2C248.707 400.6 248.507 402.2 248.107 404H233.357V404.1C233.357 406.633 233.874 408.55 234.907 409.85C235.974 411.15 237.674 411.8 240.007 411.8C241.074 411.8 242.24 411.667 243.507 411.4C244.807 411.133 246.074 410.717 247.307 410.15L248.557 413.55ZM239.357 393.35C237.424 393.35 235.957 393.983 234.957 395.25C233.99 396.483 233.457 398.233 233.357 400.5H244.557C244.657 399.9 244.707 399.333 244.707 398.8C244.707 396.933 244.174 395.567 243.107 394.7C242.074 393.8 240.824 393.35 239.357 393.35ZM258.702 401.15V404.1C258.702 406.633 259.169 408.55 260.102 409.85C261.036 411.117 262.519 411.75 264.552 411.75C266.552 411.75 268.702 411.233 271.002 410.2L272.252 413.65C269.519 414.883 266.869 415.5 264.302 415.5C261.102 415.5 258.669 414.483 257.002 412.45C255.336 410.417 254.502 407.633 254.502 404.1V401.15C254.502 397.617 255.336 394.833 257.002 392.8C258.669 390.767 261.102 389.75 264.302 389.75C265.502 389.75 266.736 389.917 268.002 390.25C269.302 390.55 270.602 390.983 271.902 391.55L270.652 395.05C269.552 394.583 268.486 394.217 267.452 393.95C266.452 393.683 265.486 393.55 264.552 393.55C262.519 393.55 261.036 394.2 260.102 395.5C259.169 396.767 258.702 398.65 258.702 401.15ZM291.863 414.1C289.997 415.033 288.013 415.5 285.913 415.5C284.113 415.5 282.697 415.133 281.663 414.4C280.663 413.667 279.947 412.683 279.513 411.45C279.113 410.217 278.913 408.85 278.913 407.35V393.85H274.613V390.25H278.913V383.35H283.013V390.25H291.113V393.85H283.013V407.2C283.013 408.933 283.297 410.133 283.863 410.8C284.463 411.433 285.38 411.75 286.613 411.75C287.213 411.75 287.83 411.683 288.463 411.55C289.13 411.383 289.847 411.117 290.613 410.75L291.863 414.1ZM316.857 401.1V404.1C316.857 407.633 315.941 410.417 314.107 412.45C312.307 414.483 309.724 415.5 306.357 415.5C303.024 415.5 300.441 414.483 298.607 412.45C296.774 410.417 295.857 407.633 295.857 404.1V401.1C295.857 397.633 296.757 394.883 298.557 392.85C300.391 390.783 302.991 389.75 306.357 389.75C309.724 389.75 312.307 390.783 314.107 392.85C315.941 394.883 316.857 397.633 316.857 401.1ZM312.607 401.1C312.607 398.733 312.074 396.883 311.007 395.55C309.941 394.183 308.391 393.5 306.357 393.5C304.357 393.5 302.807 394.183 301.707 395.55C300.641 396.883 300.107 398.733 300.107 401.1V404.1C300.107 406.567 300.641 408.467 301.707 409.8C302.807 411.133 304.357 411.8 306.357 411.8C308.391 411.8 309.941 411.133 311.007 409.8C312.074 408.467 312.607 406.567 312.607 404.1V401.1ZM340.847 393.5V392.55C340.847 390.483 341.147 388.5 341.747 386.6C342.38 384.7 343.314 382.667 344.547 380.5L347.247 381.9C346.614 383.267 346.13 384.517 345.797 385.65C345.464 386.75 345.23 387.917 345.097 389.15C344.997 390.35 344.947 391.8 344.947 393.5H340.847ZM332.647 393.5V392.55C332.647 390.483 332.947 388.5 333.547 386.6C334.18 384.7 335.114 382.667 336.347 380.5L339.047 381.9C338.414 383.267 337.93 384.517 337.597 385.65C337.264 386.75 337.03 387.917 336.897 389.15C336.797 390.35 336.747 391.8 336.747 393.5H332.647ZM349.269 385.1V381H373.419V385.1H363.519V415H359.169V385.1H349.269ZM388.773 393.85C387.273 393.85 385.806 394.117 384.373 394.65C382.973 395.183 381.473 396.2 379.873 397.7V415H375.773V390.25H379.673V394.25C381.373 392.583 382.923 391.417 384.323 390.75C385.756 390.083 387.24 389.75 388.773 389.75V393.85ZM412.232 415.25C410.699 415.25 409.466 414.9 408.532 414.2C407.632 413.5 406.999 412.633 406.632 411.6C404.999 413.033 403.516 414.05 402.182 414.65C400.849 415.217 399.516 415.5 398.182 415.5C396.016 415.5 394.416 414.8 393.382 413.4C392.349 412 391.832 410.283 391.832 408.25C391.832 406.883 392.082 405.667 392.582 404.6C393.082 403.533 393.932 402.7 395.132 402.1C396.332 401.467 397.949 401.15 399.982 401.15C400.882 401.15 401.866 401.217 402.932 401.35C403.999 401.45 405.082 401.583 406.182 401.75V398.4C406.182 396.533 405.766 395.267 404.932 394.6C404.132 393.9 402.949 393.55 401.382 393.55C399.249 393.55 396.866 394.133 394.232 395.3L392.932 391.9C394.466 391.2 395.932 390.667 397.332 390.3C398.732 389.933 400.149 389.75 401.582 389.75C403.916 389.75 405.699 390.133 406.932 390.9C408.166 391.667 409.016 392.683 409.482 393.95C409.949 395.217 410.182 396.6 410.182 398.1V408.8C410.182 409.567 410.332 410.217 410.632 410.75C410.932 411.25 411.532 411.5 412.432 411.5H412.982V415.25H412.232ZM395.882 408.2C395.882 409.333 396.149 410.25 396.682 410.95C397.216 411.65 397.982 412 398.982 412C399.849 412 400.849 411.75 401.982 411.25C403.116 410.717 404.516 409.667 406.182 408.1V404.95C403.916 404.583 401.916 404.4 400.182 404.4C398.649 404.4 397.549 404.717 396.882 405.35C396.216 405.983 395.882 406.933 395.882 408.2ZM430.691 393.6C429.757 393.6 428.657 393.833 427.391 394.3C426.157 394.767 424.657 395.717 422.891 397.15V415H418.791V390.25H422.691V393.7C424.457 392.2 426.057 391.167 427.491 390.6C428.957 390.033 430.357 389.75 431.691 389.75C433.991 389.75 435.741 390.483 436.941 391.95C438.174 393.383 438.791 395.433 438.791 398.1V415H434.691V398.7C434.691 395.3 433.357 393.6 430.691 393.6ZM453.405 411.85C456.738 411.85 458.405 410.717 458.405 408.45C458.405 407.483 458.105 406.717 457.505 406.15C456.905 405.583 455.805 405.1 454.205 404.7L451.455 404C449.422 403.5 447.905 402.633 446.905 401.4C445.905 400.133 445.405 398.633 445.405 396.9C445.405 395.633 445.688 394.467 446.255 393.4C446.822 392.3 447.722 391.417 448.955 390.75C450.188 390.083 451.788 389.75 453.755 389.75C455.022 389.75 456.305 389.9 457.605 390.2C458.938 390.467 460.288 390.933 461.655 391.6L460.355 395.05C457.922 393.95 455.722 393.4 453.755 393.4C450.855 393.4 449.405 394.483 449.405 396.65C449.405 397.483 449.672 398.2 450.205 398.8C450.738 399.4 451.738 399.883 453.205 400.25L455.955 400.95C458.155 401.483 459.772 402.35 460.805 403.55C461.838 404.75 462.355 406.3 462.355 408.2C462.355 409.567 462.055 410.817 461.455 411.95C460.888 413.05 459.955 413.917 458.655 414.55C457.388 415.183 455.672 415.5 453.505 415.5C452.072 415.5 450.638 415.35 449.205 415.05C447.805 414.75 446.355 414.267 444.855 413.6L445.955 410.2C447.388 410.767 448.688 411.183 449.855 411.45C451.022 411.717 452.205 411.85 453.405 411.85ZM481.888 393.85H473.788V415H469.688V393.85H465.388V390.25H469.688V386.15C469.688 384.617 469.938 383.2 470.438 381.9C470.972 380.567 471.822 379.5 472.988 378.7C474.155 377.9 475.705 377.5 477.638 377.5C478.605 377.5 479.622 377.617 480.688 377.85C481.788 378.05 482.805 378.367 483.738 378.8L482.588 382.25C480.888 381.583 479.405 381.25 478.138 381.25C476.738 381.25 475.655 381.633 474.888 382.4C474.155 383.167 473.788 384.4 473.788 386.1V390.25H481.888V393.85ZM505.969 401.1V404.1C505.969 407.633 505.052 410.417 503.219 412.45C501.419 414.483 498.835 415.5 495.469 415.5C492.135 415.5 489.552 414.483 487.719 412.45C485.885 410.417 484.969 407.633 484.969 404.1V401.1C484.969 397.633 485.869 394.883 487.669 392.85C489.502 390.783 492.102 389.75 495.469 389.75C498.835 389.75 501.419 390.783 503.219 392.85C505.052 394.883 505.969 397.633 505.969 401.1ZM501.719 401.1C501.719 398.733 501.185 396.883 500.119 395.55C499.052 394.183 497.502 393.5 495.469 393.5C493.469 393.5 491.919 394.183 490.819 395.55C489.752 396.883 489.219 398.733 489.219 401.1V404.1C489.219 406.567 489.752 408.467 490.819 409.8C491.919 411.133 493.469 411.8 495.469 411.8C497.502 411.8 499.052 411.133 500.119 409.8C501.185 408.467 501.719 406.567 501.719 404.1V401.1ZM526.42 393.85C524.92 393.85 523.453 394.117 522.02 394.65C520.62 395.183 519.12 396.2 517.52 397.7V415H513.42V390.25H517.32V394.25C519.02 392.583 520.57 391.417 521.97 390.75C523.403 390.083 524.886 389.75 526.42 389.75V393.85ZM543.429 393.6C542.496 393.6 541.446 393.85 540.279 394.35C539.112 394.817 537.646 395.75 535.879 397.15V415H531.779V390.25H535.679V393.7C537.446 392.233 539.012 391.217 540.379 390.65C541.746 390.05 543.096 389.75 544.429 389.75C545.996 389.75 547.296 390.117 548.329 390.85C549.362 391.55 550.129 392.567 550.629 393.9C552.462 392.333 554.096 391.25 555.529 390.65C556.996 390.05 558.429 389.75 559.829 389.75C562.029 389.75 563.712 390.483 564.879 391.95C566.046 393.383 566.629 395.433 566.629 398.1V415H562.529V398.7C562.529 395.3 561.296 393.6 558.829 393.6C557.896 393.6 556.829 393.85 555.629 394.35C554.462 394.817 552.996 395.75 551.229 397.15C551.262 397.283 551.279 397.433 551.279 397.6C551.279 397.767 551.279 397.933 551.279 398.1V415H547.179V398.7C547.179 395.3 545.929 393.6 543.429 393.6ZM593.336 415.25C591.803 415.25 590.569 414.9 589.636 414.2C588.736 413.5 588.103 412.633 587.736 411.6C586.103 413.033 584.619 414.05 583.286 414.65C581.953 415.217 580.619 415.5 579.286 415.5C577.119 415.5 575.519 414.8 574.486 413.4C573.453 412 572.936 410.283 572.936 408.25C572.936 406.883 573.186 405.667 573.686 404.6C574.186 403.533 575.036 402.7 576.236 402.1C577.436 401.467 579.053 401.15 581.086 401.15C581.986 401.15 582.969 401.217 584.036 401.35C585.103 401.45 586.186 401.583 587.286 401.75V398.4C587.286 396.533 586.869 395.267 586.036 394.6C585.236 393.9 584.053 393.55 582.486 393.55C580.353 393.55 577.969 394.133 575.336 395.3L574.036 391.9C575.569 391.2 577.036 390.667 578.436 390.3C579.836 389.933 581.253 389.75 582.686 389.75C585.019 389.75 586.803 390.133 588.036 390.9C589.269 391.667 590.119 392.683 590.586 393.95C591.053 395.217 591.286 396.6 591.286 398.1V408.8C591.286 409.567 591.436 410.217 591.736 410.75C592.036 411.25 592.636 411.5 593.536 411.5H594.086V415.25H593.336ZM576.986 408.2C576.986 409.333 577.253 410.25 577.786 410.95C578.319 411.65 579.086 412 580.086 412C580.953 412 581.953 411.75 583.086 411.25C584.219 410.717 585.619 409.667 587.286 408.1V404.95C585.019 404.583 583.019 404.4 581.286 404.4C579.753 404.4 578.653 404.717 577.986 405.35C577.319 405.983 576.986 406.933 576.986 408.2ZM602.794 401.15V404.1C602.794 406.633 603.261 408.55 604.194 409.85C605.127 411.117 606.611 411.75 608.644 411.75C610.644 411.75 612.794 411.233 615.094 410.2L616.344 413.65C613.611 414.883 610.961 415.5 608.394 415.5C605.194 415.5 602.761 414.483 601.094 412.45C599.427 410.417 598.594 407.633 598.594 404.1V401.15C598.594 397.617 599.427 394.833 601.094 392.8C602.761 390.767 605.194 389.75 608.394 389.75C609.594 389.75 610.827 389.917 612.094 390.25C613.394 390.55 614.694 390.983 615.994 391.55L614.744 395.05C613.644 394.583 612.577 394.217 611.544 393.95C610.544 393.683 609.577 393.55 608.644 393.55C606.611 393.55 605.127 394.2 604.194 395.5C603.261 396.767 602.794 398.65 602.794 401.15ZM626.705 384.2H622.105V379.6H626.705V384.2ZM626.455 415H622.355V390.25H626.455V415ZM654.895 401.1V404.1C654.895 407.633 653.978 410.417 652.145 412.45C650.345 414.483 647.761 415.5 644.395 415.5C641.061 415.5 638.478 414.483 636.645 412.45C634.811 410.417 633.895 407.633 633.895 404.1V401.1C633.895 397.633 634.795 394.883 636.595 392.85C638.428 390.783 641.028 389.75 644.395 389.75C647.761 389.75 650.345 390.783 652.145 392.85C653.978 394.883 654.895 397.633 654.895 401.1ZM650.645 401.1C650.645 398.733 650.111 396.883 649.045 395.55C647.978 394.183 646.428 393.5 644.395 393.5C642.395 393.5 640.845 394.183 639.745 395.55C638.678 396.883 638.145 398.733 638.145 401.1V404.1C638.145 406.567 638.678 408.467 639.745 409.8C640.845 411.133 642.395 411.8 644.395 411.8C646.428 411.8 647.978 411.133 649.045 409.8C650.111 408.467 650.645 406.567 650.645 404.1V401.1ZM646.195 386.05H642.645L647.145 377.75L651.045 379.55L646.195 386.05ZM674.245 393.6C673.312 393.6 672.212 393.833 670.945 394.3C669.712 394.767 668.212 395.717 666.445 397.15V415H662.345V390.25H666.245V393.7C668.012 392.2 669.612 391.167 671.045 390.6C672.512 390.033 673.912 389.75 675.245 389.75C677.545 389.75 679.295 390.483 680.495 391.95C681.729 393.383 682.345 395.433 682.345 398.1V415H678.245V398.7C678.245 395.3 676.912 393.6 674.245 393.6ZM202.601 475V441H213.151C217.051 441 220.051 442.183 222.151 444.55C224.251 446.883 225.301 450.117 225.301 454.25V461.7C225.301 465.867 224.251 469.133 222.151 471.5C220.051 473.833 217.051 475 213.151 475H202.601ZM213.051 445.1H206.951V470.95H213.051C218.217 470.95 220.801 467.867 220.801 461.7V454.25C220.801 448.15 218.217 445.1 213.051 445.1ZM237.887 444.2H233.287V439.6H237.887V444.2ZM237.637 475H233.537V450.25H237.637V475ZM266.276 478.1C266.276 480.533 265.276 482.483 263.276 483.95C261.31 485.417 258.593 486.15 255.126 486.15C253.393 486.15 251.576 485.917 249.676 485.45C247.81 484.983 246.043 484.233 244.376 483.2L245.776 480C247.443 480.933 249.043 481.583 250.576 481.95C252.143 482.35 253.66 482.55 255.126 482.55C257.393 482.55 259.143 482.183 260.376 481.45C261.61 480.717 262.226 479.733 262.226 478.5C262.226 477.6 261.926 476.9 261.326 476.4C260.726 475.933 259.76 475.7 258.426 475.7H252.676C250.51 475.7 248.943 475.183 247.976 474.15C247.01 473.117 246.526 471.983 246.526 470.75C246.526 469.883 246.726 469.033 247.126 468.2C247.526 467.333 248.093 466.483 248.826 465.65C247.66 464.95 246.726 464 246.026 462.8C245.326 461.567 244.976 460.083 244.976 458.35C244.976 456.45 245.376 454.867 246.176 453.6C247.01 452.333 248.11 451.383 249.476 450.75C250.843 450.083 252.376 449.75 254.076 449.75H254.926C256.093 449.75 257.16 449.917 258.126 450.25H267.026V453.9L261.626 453.15C262.326 453.75 262.893 454.5 263.326 455.4C263.76 456.267 263.976 457.333 263.976 458.6C263.976 460.4 263.56 461.917 262.726 463.15C261.926 464.383 260.843 465.333 259.476 466C258.11 466.633 256.593 466.95 254.926 466.95H254.076C253.643 466.95 253.226 466.933 252.826 466.9C252.426 466.833 252.026 466.767 251.626 466.7C250.66 467.767 250.176 468.817 250.176 469.85C250.176 471.183 251.11 471.85 252.976 471.85H258.576C260.976 471.85 262.86 472.383 264.226 473.45C265.593 474.517 266.276 476.067 266.276 478.1ZM254.926 463.4C256.226 463.4 257.376 462.983 258.376 462.15C259.376 461.317 259.876 460.05 259.876 458.35C259.876 456.683 259.376 455.433 258.376 454.6C257.376 453.733 256.226 453.3 254.926 453.3H254.076C252.743 453.3 251.576 453.733 250.576 454.6C249.576 455.433 249.076 456.683 249.076 458.35C249.076 460.05 249.576 461.317 250.576 462.15C251.576 462.983 252.743 463.4 254.076 463.4H254.926ZM276.803 444.2H272.203V439.6H276.803V444.2ZM276.553 475H272.453V450.25H276.553V475ZM298.992 474.1C297.126 475.033 295.142 475.5 293.042 475.5C291.242 475.5 289.826 475.133 288.792 474.4C287.792 473.667 287.076 472.683 286.642 471.45C286.242 470.217 286.042 468.85 286.042 467.35V453.85H281.742V450.25H286.042V443.35H290.142V450.25H298.242V453.85H290.142V467.2C290.142 468.933 290.426 470.133 290.992 470.8C291.592 471.433 292.509 471.75 293.742 471.75C294.342 471.75 294.959 471.683 295.592 471.55C296.259 471.383 296.976 471.117 297.742 470.75L298.992 474.1ZM322.486 475.25C320.953 475.25 319.72 474.9 318.786 474.2C317.886 473.5 317.253 472.633 316.886 471.6C315.253 473.033 313.77 474.05 312.436 474.65C311.103 475.217 309.77 475.5 308.436 475.5C306.27 475.5 304.67 474.8 303.636 473.4C302.603 472 302.086 470.283 302.086 468.25C302.086 466.883 302.336 465.667 302.836 464.6C303.336 463.533 304.186 462.7 305.386 462.1C306.586 461.467 308.203 461.15 310.236 461.15C311.136 461.15 312.12 461.217 313.186 461.35C314.253 461.45 315.336 461.583 316.436 461.75V458.4C316.436 456.533 316.02 455.267 315.186 454.6C314.386 453.9 313.203 453.55 311.636 453.55C309.503 453.55 307.12 454.133 304.486 455.3L303.186 451.9C304.72 451.2 306.186 450.667 307.586 450.3C308.986 449.933 310.403 449.75 311.836 449.75C314.17 449.75 315.953 450.133 317.186 450.9C318.42 451.667 319.27 452.683 319.736 453.95C320.203 455.217 320.436 456.6 320.436 458.1V468.8C320.436 469.567 320.586 470.217 320.886 470.75C321.186 471.25 321.786 471.5 322.686 471.5H323.236V475.25H322.486ZM306.136 468.2C306.136 469.333 306.403 470.25 306.936 470.95C307.47 471.65 308.236 472 309.236 472C310.103 472 311.103 471.75 312.236 471.25C313.37 470.717 314.77 469.667 316.436 468.1V464.95C314.17 464.583 312.17 464.4 310.436 464.4C308.903 464.4 307.803 464.717 307.136 465.35C306.47 465.983 306.136 466.933 306.136 468.2ZM328.995 469V438H333.095V468.8C333.095 469.7 333.228 470.383 333.495 470.85C333.795 471.283 334.378 471.5 335.245 471.5H336.045V475.25H334.895C332.695 475.25 331.161 474.667 330.295 473.5C329.428 472.333 328.995 470.833 328.995 469ZM356.017 461.15V464.1C356.017 466.633 356.483 468.55 357.417 469.85C358.35 471.117 359.833 471.75 361.867 471.75C363.867 471.75 366.017 471.233 368.317 470.2L369.567 473.65C366.833 474.883 364.183 475.5 361.617 475.5C358.417 475.5 355.983 474.483 354.317 472.45C352.65 470.417 351.817 467.633 351.817 464.1V461.15C351.817 457.617 352.65 454.833 354.317 452.8C355.983 450.767 358.417 449.75 361.617 449.75C362.817 449.75 364.05 449.917 365.317 450.25C366.617 450.55 367.917 450.983 369.217 451.55L367.967 455.05C366.867 454.583 365.8 454.217 364.767 453.95C363.767 453.683 362.8 453.55 361.867 453.55C359.833 453.55 358.35 454.2 357.417 455.5C356.483 456.767 356.017 458.65 356.017 461.15ZM395.08 461.1V464.1C395.08 467.633 394.163 470.417 392.33 472.45C390.53 474.483 387.947 475.5 384.58 475.5C381.247 475.5 378.663 474.483 376.83 472.45C374.997 470.417 374.08 467.633 374.08 464.1V461.1C374.08 457.633 374.98 454.883 376.78 452.85C378.613 450.783 381.213 449.75 384.58 449.75C387.947 449.75 390.53 450.783 392.33 452.85C394.163 454.883 395.08 457.633 395.08 461.1ZM390.83 461.1C390.83 458.733 390.297 456.883 389.23 455.55C388.163 454.183 386.613 453.5 384.58 453.5C382.58 453.5 381.03 454.183 379.93 455.55C378.863 456.883 378.33 458.733 378.33 461.1V464.1C378.33 466.567 378.863 468.467 379.93 469.8C381.03 471.133 382.58 471.8 384.58 471.8C386.613 471.8 388.163 471.133 389.23 469.8C390.297 468.467 390.83 466.567 390.83 464.1V461.1ZM414.431 453.6C413.498 453.6 412.398 453.833 411.131 454.3C409.898 454.767 408.398 455.717 406.631 457.15V475H402.531V450.25H406.431V453.7C408.198 452.2 409.798 451.167 411.231 450.6C412.698 450.033 414.098 449.75 415.431 449.75C417.731 449.75 419.481 450.483 420.681 451.95C421.914 453.383 422.531 455.433 422.531 458.1V475H418.431V458.7C418.431 455.3 417.098 453.6 414.431 453.6ZM461.884 470.95V475H442.884V441H461.384V445.1H447.234V455.75H459.884V459.85H447.234V470.95H461.884ZM487.496 452.45V485.65H483.396V471.65C481.896 473.083 480.513 474.083 479.246 474.65C478.013 475.217 476.746 475.5 475.446 475.5C472.846 475.5 470.846 474.5 469.446 472.5C468.046 470.5 467.346 467.7 467.346 464.1V461.2C467.346 457.7 468.213 454.917 469.946 452.85C471.713 450.783 474.263 449.75 477.596 449.75C480.863 449.75 484.163 450.65 487.496 452.45ZM471.596 464.1C471.596 466.7 471.996 468.617 472.796 469.85C473.596 471.05 474.813 471.65 476.446 471.65C477.413 471.65 478.413 471.4 479.446 470.9C480.48 470.4 481.796 469.383 483.396 467.85V454.75C481.43 453.917 479.58 453.5 477.846 453.5C475.613 453.5 474.013 454.183 473.046 455.55C472.08 456.917 471.596 458.8 471.596 461.2V464.1ZM511.433 475V471.5C509.7 473 508.15 474.05 506.783 474.65C505.417 475.217 504.05 475.5 502.683 475.5C500.483 475.5 498.8 474.783 497.633 473.35C496.467 471.883 495.883 469.833 495.883 467.2V450.25H499.983V466.6C499.983 468.333 500.283 469.617 500.883 470.45C501.517 471.25 502.45 471.65 503.683 471.65C504.617 471.65 505.667 471.417 506.833 470.95C508 470.483 509.45 469.55 511.183 468.15V450.25H515.283V475H511.433ZM528.463 444.2H523.863V439.6H528.463V444.2ZM528.213 475H524.113V450.25H528.213V475ZM552.102 475V471.55C550.569 473.017 549.169 474.05 547.902 474.65C546.669 475.217 545.386 475.5 544.052 475.5C541.419 475.5 539.386 474.5 537.952 472.5C536.552 470.5 535.852 467.7 535.852 464.1V461.2C535.852 457.7 536.719 454.917 538.452 452.85C540.219 450.783 542.769 449.75 546.102 449.75C547.069 449.75 548.036 449.85 549.002 450.05C549.969 450.25 550.936 450.533 551.902 450.9V438H556.002V475H552.102ZM540.102 464.1C540.102 466.7 540.502 468.617 541.302 469.85C542.136 471.05 543.369 471.65 545.002 471.65C545.969 471.65 546.969 471.417 548.002 470.95C549.036 470.45 550.336 469.433 551.902 467.9V454.7C550.936 454.267 550.002 453.967 549.102 453.8C548.202 453.6 547.319 453.5 546.452 453.5C544.186 453.5 542.552 454.183 541.552 455.55C540.586 456.917 540.102 458.8 540.102 461.2V464.1ZM582.936 475.25C581.402 475.25 580.169 474.9 579.236 474.2C578.336 473.5 577.702 472.633 577.336 471.6C575.702 473.033 574.219 474.05 572.886 474.65C571.552 475.217 570.219 475.5 568.886 475.5C566.719 475.5 565.119 474.8 564.086 473.4C563.052 472 562.536 470.283 562.536 468.25C562.536 466.883 562.786 465.667 563.286 464.6C563.786 463.533 564.636 462.7 565.836 462.1C567.036 461.467 568.652 461.15 570.686 461.15C571.586 461.15 572.569 461.217 573.636 461.35C574.702 461.45 575.786 461.583 576.886 461.75V458.4C576.886 456.533 576.469 455.267 575.636 454.6C574.836 453.9 573.652 453.55 572.086 453.55C569.952 453.55 567.569 454.133 564.936 455.3L563.636 451.9C565.169 451.2 566.636 450.667 568.036 450.3C569.436 449.933 570.852 449.75 572.286 449.75C574.619 449.75 576.402 450.133 577.636 450.9C578.869 451.667 579.719 452.683 580.186 453.95C580.652 455.217 580.886 456.6 580.886 458.1V468.8C580.886 469.567 581.036 470.217 581.336 470.75C581.636 471.25 582.236 471.5 583.136 471.5H583.686V475.25H582.936ZM566.586 468.2C566.586 469.333 566.852 470.25 567.386 470.95C567.919 471.65 568.686 472 569.686 472C570.552 472 571.552 471.75 572.686 471.25C573.819 470.717 575.219 469.667 576.886 468.1V464.95C574.619 464.583 572.619 464.4 570.886 464.4C569.352 464.4 568.252 464.717 567.586 465.35C566.919 465.983 566.586 466.933 566.586 468.2ZM604.544 475V471.55C603.01 473.017 601.61 474.05 600.344 474.65C599.11 475.217 597.827 475.5 596.494 475.5C593.86 475.5 591.827 474.5 590.394 472.5C588.994 470.5 588.294 467.7 588.294 464.1V461.2C588.294 457.7 589.16 454.917 590.894 452.85C592.66 450.783 595.21 449.75 598.544 449.75C599.51 449.75 600.477 449.85 601.444 450.05C602.41 450.25 603.377 450.533 604.344 450.9V438H608.444V475H604.544ZM592.544 464.1C592.544 466.7 592.944 468.617 593.744 469.85C594.577 471.05 595.81 471.65 597.444 471.65C598.41 471.65 599.41 471.417 600.444 470.95C601.477 470.45 602.777 469.433 604.344 467.9V454.7C603.377 454.267 602.444 453.967 601.544 453.8C600.644 453.6 599.76 453.5 598.894 453.5C596.627 453.5 594.994 454.183 593.994 455.55C593.027 456.917 592.544 458.8 592.544 461.2V464.1ZM620.627 441V441.95C620.627 444.05 620.327 446.05 619.727 447.95C619.127 449.817 618.194 451.833 616.927 454L614.177 452.65C614.81 451.25 615.294 450 615.627 448.9C615.96 447.767 616.194 446.583 616.327 445.35C616.46 444.117 616.527 442.667 616.527 441H620.627ZM628.827 441V441.95C628.827 444.05 628.527 446.05 627.927 447.95C627.327 449.817 626.394 451.833 625.127 454L622.377 452.65C623.01 451.25 623.494 450 623.827 448.9C624.16 447.767 624.394 446.583 624.527 445.35C624.66 444.117 624.727 442.667 624.727 441H628.827Z" fill="white"/>
</svg>
